<svg width="24" height="25" viewBox="0 0 24 25" fill="none" xmlns="http://www.w3.org/2000/svg">
<path d="M9.35294 16.6996V18.7996C9.35294 19.3566 9.57605 19.8907 9.97319 20.2845C10.3703 20.6784 10.909 20.8996 11.4706 20.8996L18.8824 20.8996C19.444 20.8996 19.9826 20.6784 20.3798 20.2845C20.7769 19.8907 21 19.3566 21 18.7996L21 6.19961C21 5.64266 20.7769 5.10851 20.3798 4.71469C19.9826 4.32086 19.444 4.09961 18.8824 4.09961L11.4706 4.09961C10.909 4.09961 10.3703 4.32086 9.97319 4.71469C9.57605 5.10851 9.35294 5.64265 9.35294 6.19961V8.29961M15.7059 12.4996L3 12.4996M3 12.4996L6.17647 15.6496M3 12.4996L6.17647 9.34961" stroke="white" stroke-width="2" stroke-linecap="round" stroke-linejoin="round"/>
</svg>
