<svg width="106" height="17" viewBox="0 0 106 17" fill="none" xmlns="http://www.w3.org/2000/svg">
<path d="M9.024 0.0079999C11.024 0.0079999 12.552 0.424 13.608 1.256C14.68 2.088 15.216 3.248 15.216 4.736C15.216 5.744 15.04 6.616 14.688 7.352C14.336 8.088 13.832 8.696 13.176 9.176C12.52 9.64 11.728 9.984 10.8 10.208C9.888 10.432 8.864 10.544 7.728 10.544H5.544L4.392 17H0.432L3.432 0.0079999H9.024ZM7.8 7.376C8.84 7.376 9.664 7.216 10.272 6.896C10.896 6.56 11.208 5.976 11.208 5.144C11.208 4.776 11.136 4.472 10.992 4.232C10.864 3.976 10.68 3.776 10.44 3.632C10.2 3.488 9.912 3.392 9.576 3.344C9.24 3.28 8.872 3.248 8.472 3.248H6.84L6.096 7.376H7.8ZM29.7533 17H25.2413L22.3853 10.16H20.7533L19.6013 17H15.7133L18.7133 0.0079999H24.5213C26.3933 0.0079999 27.8493 0.408 28.8893 1.208C29.9453 1.992 30.4733 3.096 30.4733 4.52C30.4733 5.896 30.0973 7.024 29.3453 7.904C28.5933 8.768 27.5773 9.36 26.2973 9.68L29.7533 17ZM23.0573 7.304C24.1293 7.304 24.9613 7.128 25.5533 6.776C26.1453 6.424 26.4413 5.864 26.4413 5.096C26.4413 4.392 26.1933 3.912 25.6973 3.656C25.2013 3.4 24.5373 3.272 23.7053 3.272H22.0013L21.2812 7.304H23.0573ZM31.4633 17L34.4633 0.0079999H38.4713L35.4713 17H31.4633ZM49.6416 17L44.9616 5.72H44.8896L42.9696 17H39.0336L42.0336 0.0079999H46.5216L51.1776 11.216H51.2256L53.1456 0.0079999H57.0816L54.0816 17H49.6416ZM67.2351 3.44L64.8351 17H60.8511L63.2271 3.44H58.4751L59.0991 0.0079999H72.4911L71.8911 3.44H67.2351ZM80.5007 3.44L78.1007 17H74.1167L76.4927 3.44H71.7407L72.3647 0.0079999H85.7567L85.1567 3.44H80.5007ZM84.5023 17L87.5023 0.0079999H91.5103L88.5103 17H84.5023ZM92.0726 17L95.0726 0.0079999H105.945L105.345 3.416H98.2886L97.7126 6.704H104.433L103.857 9.92H97.1366L96.5126 13.568H104.241L103.641 17H92.0726Z" fill="white"/>
</svg>
